<svg xmlns="http://www.w3.org/2000/svg" aria-labelledby="title desc" style="--iridis-speed-slow:28s;--iridis-speed-medium:14s;--iridis-speed-fast:7s;--iridis-opacity-fidelity:1;--iridis-opacity-chromatic-zones:0;--iridis-opacity-graph:0.78;--iridis-opacity-rings:0.72;--iridis-hue-rotate:0deg;--iridis-saturation:1.08;--iridis-brightness:1" viewBox="0 0 1254 1254"><title id="title">Iridis full-fidelity layered icon</title><desc id="desc">A full-fidelity raster-preserving SVG of the Iridis icon with semantic layers for graph, trajectory, chromatic zones, subtle iris curvature, and CSS animation hooks.</desc><defs><filter id="iridis-node-glow" width="260%" height="260%" x="-80%" y="-80%"><feGaussianBlur result="blur" stdDeviation="5"/><feMerge><feMergeNode in="blur"/><feMergeNode in="SourceGraphic"/></feMerge></filter><filter id="iridis-soft-glow" width="190%" height="190%" x="-45%" y="-45%"><feGaussianBlur result="blur" stdDeviation="7"/><feMerge><feMergeNode in="blur"/><feMergeNode in="SourceGraphic"/></feMerge></filter><radialGradient id="iridis-core-glow" cx="50%" cy="50%" r="60%"><stop offset="0%" stop-color="#dfffff" stop-opacity=".5"/><stop offset="24%" stop-color="#00d7ff" stop-opacity=".22"/><stop offset="56%" stop-color="#894cff" stop-opacity=".13"/><stop offset="100%" stop-opacity="0"/></radialGradient><style>@keyframes iridis-spin{to{transform:rotate(360deg)}}@keyframes iridis-dash{to{stroke-dashoffset:-100}}.scale-zone{opacity:.35;transition:opacity 240ms ease,fill 240ms ease}.graph-edge,.trajectory-ring{fill:none;stroke-width:1.8;stroke-linecap:round}.trajectory-ring{stroke-dasharray:9 13;animation:iridis-dash var(--iridis-speed-medium) linear infinite}.graph-edge{stroke:#0edcff;stroke-dasharray:7 9;opacity:.62;animation:iridis-dash var(--iridis-speed-fast) linear infinite}.graph-node{stroke:#eaffff;stroke-width:1.6;filter:url(#iridis-node-glow);transform-box:fill-box;transform-origin:center}.graph-node-cyan{fill:#00e5ff}.graph-node-blue{fill:#1979ff}.graph-node-violet{fill:#8657ff}.graph-node-magenta{fill:#ff35d3}.graph-node-amber{fill:#ffb83d}.graph-node-emerald{fill:#3cff9e}.graph-node-teal{fill:#00ffe2}.iris-curve{fill:none;stroke-linecap:round;filter:url(#iridis-soft-glow)}</style></defs><g id="iridis-icon"><path d="M0 0h1254v1254H0z" style="fill:transparent"/><g data-layer-role="semantic-color-fields" style="opacity:var(--iridis-opacity-chromatic-zones);mix-blend-mode:screen;filter:url(#iridis-soft-glow)"><path id="scale-zone-cyan-left" fill="#00d7ff" d="M165 503c57-228 273-315 414-270-86 101-132 192-158 274-90-14-173-9-256-4" class="scale-zone"/><path id="scale-zone-emerald-upper-left" fill="#31ff9a" d="M265 354c90-139 276-188 414-129-77 45-156 91-209 173-71-20-139-33-205-44" class="scale-zone"/><path id="scale-zone-violet-upper" fill="#8657ff" d="M463 226c154-77 332-2 423 160-127-27-259-36-376 12-15-68-29-123-47-172" class="scale-zone"/><path id="scale-zone-magenta-right" fill="#ff35d3" d="M611 384c136-43 275-7 350 129-103 14-215 16-327-3-3-46-11-88-23-126" class="scale-zone"/><path id="scale-zone-amber-lower-right" fill="#ffb33f" d="M639 518c110 19 218 12 318 2-74 165-213 279-378 285 32-88 53-184 60-287" class="scale-zone"/><path id="scale-zone-teal-lower-left" fill="#00ffe2" d="M165 520c100-4 183 0 260 19 21 94 76 175 153 266-180 1-341-117-413-285" class="scale-zone"/><path id="scale-zone-indigo-core" fill="#4435ff" d="M374 627c70.84-118 435.16-118 506 0-70.84 118-435.16 118-506 0" class="scale-zone"/></g><g data-layer-role="animatable-oklch-trajectory-arcs" style="opacity:var(--iridis-opacity-rings);transform-box:fill-box;transform-origin:center;animation:iridis-spin var(--iridis-speed-slow) linear infinite"><path id="trajectory-ring-0" d="M189 627a438 438 0 1 0 876 0 438 438 0 1 0-876 0" class="trajectory-ring" pathLength="100" style="stroke:#00d7ff"/><path id="trajectory-ring-1" d="M156 627a471 471 0 1 0 942 0 471 471 0 1 0-942 0" class="trajectory-ring" pathLength="100" style="stroke:#a04dff"/><path id="trajectory-ring-2" d="M124 627a503 503 0 1 0 1006 0 503 503 0 1 0-1006 0" class="trajectory-ring" pathLength="100" style="stroke:#ffb83d"/></g><g data-layer-role="animatable-color-role-graph" style="opacity:var(--iridis-opacity-graph);filter:url(#iridis-node-glow)"><g id="graph-edges"><path id="graph-edge-00" d="M1109 627q-482 0-122.36 286.81" class="graph-edge"/><path id="graph-edge-02" d="M1041.45 826.59Q627 627 826.59 1041.45" class="graph-edge"/><path id="graph-edge-04" d="M927.52 1003.84Q627 627 627 1087" class="graph-edge"/><path id="graph-edge-06" d="M729.36 1075.47Q627 627 427.41 1041.45" class="graph-edge"/><path id="graph-edge-08" d="M519.74 1096.92Q627 627 267.36 913.81" class="graph-edge"/><path id="graph-edge-10" d="M340.19 986.64Q627 627 178.53 729.36" class="graph-edge"/><path id="graph-edge-12" d="M192.73 836.13Q627 627 178.53 524.64" class="graph-edge"/><path id="graph-edge-14" d="M167 627q460 0 100.36-286.81" class="graph-edge"/><path id="graph-edge-16" d="M192.73 417.87Q627 627 427.41 212.55" class="graph-edge"/><path id="graph-edge-18" d="M340.19 267.36Q627 627 627 167" class="graph-edge"/><path id="graph-edge-20" d="M519.74 157.08Q627 627 826.59 212.55" class="graph-edge"/><path id="graph-edge-22" d="M729.36 178.53Q627 627 986.64 340.19" class="graph-edge"/><path id="graph-edge-24" d="M927.52 250.16Q627 627 1075.47 524.64" class="graph-edge"/><path id="graph-edge-26" d="M1041.45 427.41Q627 627 1075.47 729.36" class="graph-edge"/></g><g id="graph-nodes"><circle id="graph-node-00" cx="1109" cy="627" r="8" class="graph-node graph-node-cyan"/><circle id="graph-node-01" cx="1075.47" cy="729.36" r="10" class="graph-node graph-node-blue"/><circle id="graph-node-02" cx="1041.45" cy="826.59" r="12" class="graph-node graph-node-violet"/><circle id="graph-node-03" cx="986.64" cy="913.81" r="8" class="graph-node graph-node-magenta"/><circle id="graph-node-04" cx="927.52" cy="1003.84" r="10" class="graph-node graph-node-amber"/><circle id="graph-node-05" cx="826.59" cy="1041.45" r="12" class="graph-node graph-node-emerald"/><circle id="graph-node-06" cx="729.36" cy="1075.47" r="8" class="graph-node graph-node-teal"/><circle id="graph-node-07" cx="627" cy="1087" r="10" class="graph-node graph-node-cyan"/><circle id="graph-node-08" cx="519.74" cy="1096.92" r="12" class="graph-node graph-node-blue"/><circle id="graph-node-09" cx="427.41" cy="1041.45" r="8" class="graph-node graph-node-violet"/><circle id="graph-node-10" cx="340.19" cy="986.64" r="10" class="graph-node graph-node-magenta"/><circle id="graph-node-11" cx="267.36" cy="913.81" r="12" class="graph-node graph-node-amber"/><circle id="graph-node-12" cx="192.73" cy="836.13" r="8" class="graph-node graph-node-emerald"/><circle id="graph-node-13" cx="178.53" cy="729.36" r="10" class="graph-node graph-node-teal"/><circle id="graph-node-14" cx="167" cy="627" r="12" class="graph-node graph-node-cyan"/><circle id="graph-node-15" cx="178.53" cy="524.64" r="8" class="graph-node graph-node-blue"/><circle id="graph-node-16" cx="192.73" cy="417.87" r="10" class="graph-node graph-node-violet"/><circle id="graph-node-17" cx="267.36" cy="340.19" r="12" class="graph-node graph-node-magenta"/><circle id="graph-node-18" cx="340.19" cy="267.36" r="8" class="graph-node graph-node-amber"/><circle id="graph-node-19" cx="427.41" cy="212.55" r="10" class="graph-node graph-node-emerald"/><circle id="graph-node-20" cx="519.74" cy="157.08" r="12" class="graph-node graph-node-teal"/><circle id="graph-node-21" cx="627" cy="167" r="8" class="graph-node graph-node-cyan"/><circle id="graph-node-22" cx="729.36" cy="178.53" r="10" class="graph-node graph-node-blue"/><circle id="graph-node-23" cx="826.59" cy="212.55" r="12" class="graph-node graph-node-violet"/><circle id="graph-node-24" cx="927.52" cy="250.16" r="8" class="graph-node graph-node-magenta"/><circle id="graph-node-25" cx="986.64" cy="340.19" r="10" class="graph-node graph-node-amber"/><circle id="graph-node-26" cx="1041.45" cy="427.41" r="12" class="graph-node graph-node-emerald"/><circle id="graph-node-27" cx="1075.47" cy="524.64" r="8" class="graph-node graph-node-teal"/></g></g><g data-layer-role="subtle-eye-indicated-by-scale-flow" style="opacity:.6;mix-blend-mode:screen"><path d="M150 512c140-146 588-146 734 0" class="iris-curve" style="stroke:#00e5ff;stroke-width:2.5"/><path d="M150 512c144 146 588 146 734 0" class="iris-curve" style="stroke:#ff35d3;stroke-width:2.2"/><ellipse cx="627" cy="627" rx="205" ry="100" style="fill:url(#iridis-core-glow);opacity:.55"/></g></g></svg>