<svg xmlns="http://www.w3.org/2000/svg" viewBox="0 0 400 460" role="img" aria-label="iridis v0.4.2">
  <defs>
    <linearGradient id="ringHex" x1="92" y1="36" x2="308" y2="364" gradientUnits="userSpaceOnUse">
      <stop offset="0"   stop-color="#3a1066"/>
      <stop offset="0.5" stop-color="#1a0533"/>
      <stop offset="1"   stop-color="#0c0218"/>
    </linearGradient>
    <filter id="nodeShadow" x="-30%" y="-30%" width="160%" height="160%">
      <feDropShadow dx="0" dy="10" stdDeviation="10" flood-color="#000000" flood-opacity="0.32"/>
    </filter>
    <filter id="iconGlow" x="-20%" y="-20%" width="140%" height="140%">
      <feGaussianBlur stdDeviation="3" result="b"/>
      <feMerge><feMergeNode in="b"/><feMergeNode in="SourceGraphic"/></feMerge>
    </filter>
    <radialGradient id="coreGlow" cx="50%" cy="50%" r="60%">
      <stop offset="0%"   stop-color="#dfffff" stop-opacity=".5"/>
      <stop offset="24%"  stop-color="#00d7ff" stop-opacity=".22"/>
      <stop offset="56%"  stop-color="#894cff" stop-opacity=".13"/>
      <stop offset="100%" stop-opacity="0"/>
    </radialGradient>
    <style>
      .wordmark {
        font-family: ui-sans-serif, system-ui, -apple-system, BlinkMacSystemFont, "Segoe UI", sans-serif;
        font-weight: 800;
        letter-spacing: -0.04em;
        fill: #f5f3ff;
      }
      .version {
        font-family: ui-monospace, "SF Mono", Menlo, Consolas, monospace;
        font-weight: 700;
        letter-spacing: 0.06em;
        fill: #ffffff;
      }
      .graph-edge { fill: none; stroke: #0edcff; stroke-width: 2.2; stroke-linecap: round; opacity: 0.62; }
      .trajectory-ring { fill: none; stroke-width: 2.2; stroke-linecap: round; stroke-dasharray: 9 13; }
      .graph-node { stroke: #eaffff; stroke-width: 1.6; filter: url(#iconGlow); }
      .graph-node-cyan    { fill: #00e5ff; }
      .graph-node-blue    { fill: #1979ff; }
      .graph-node-violet  { fill: #8657ff; }
      .graph-node-magenta { fill: #ff35d3; }
      .graph-node-amber   { fill: #ffb83d; }
      .graph-node-emerald { fill: #3cff9e; }
      .graph-node-teal    { fill: #00ffe2; }
      .iris-curve { fill: none; stroke-linecap: round; filter: url(#iconGlow); }
    </style>
  </defs>

  <g id="iridis-node" filter="url(#nodeShadow)">
    <path d="M200 24 L352.4 112 L352.4 288 L200 376 L47.6 288 L47.6 112 Z" fill="url(#ringHex)"/>
    <path d="M200 24 L47.6 112 L112 149 L200 98 Z" fill="#FFFFFF" opacity="0.08"/>
    <path d="M200 24 L352.4 112 L288 149 L200 98 Z" fill="#FFFFFF" opacity="0.04"/>
    <path d="M47.6 112 L112 149 L200 376 L47.6 288 Z" fill="#000000" opacity="0.20"/>
    <path d="M352.4 112 L288 149 L200 376 L352.4 288 Z" fill="#000000" opacity="0.28"/>
    <path d="M200 24 L352.4 112 L352.4 288 L200 376 L47.6 288 L47.6 112 Z" fill="none" stroke="#7c3aed" stroke-opacity="0.35" stroke-width="1.5"/>

    <g transform="translate(200, 195) scale(0.205) translate(-627, -627)">
      <g style="opacity:0.72">
        <path d="M189 627a438 438 0 1 0 876 0 438 438 0 1 0-876 0" class="trajectory-ring" style="stroke:#00d7ff"/>
        <path d="M156 627a471 471 0 1 0 942 0 471 471 0 1 0-942 0" class="trajectory-ring" style="stroke:#a04dff"/>
        <path d="M124 627a503 503 0 1 0 1006 0 503 503 0 1 0-1006 0" class="trajectory-ring" style="stroke:#ffb83d"/>
      </g>
      <g style="opacity:0.78">
        <g>
          <path d="M1109 627q-482 0-122.36 286.81" class="graph-edge"/>
          <path d="M1041.45 826.59Q627 627 826.59 1041.45" class="graph-edge"/>
          <path d="M927.52 1003.84Q627 627 627 1087" class="graph-edge"/>
          <path d="M729.36 1075.47Q627 627 427.41 1041.45" class="graph-edge"/>
          <path d="M519.74 1096.92Q627 627 267.36 913.81" class="graph-edge"/>
          <path d="M340.19 986.64Q627 627 178.53 729.36" class="graph-edge"/>
          <path d="M192.73 836.13Q627 627 178.53 524.64" class="graph-edge"/>
          <path d="M167 627q460 0 100.36-286.81" class="graph-edge"/>
          <path d="M192.73 417.87Q627 627 427.41 212.55" class="graph-edge"/>
          <path d="M340.19 267.36Q627 627 627 167" class="graph-edge"/>
          <path d="M519.74 157.08Q627 627 826.59 212.55" class="graph-edge"/>
          <path d="M729.36 178.53Q627 627 986.64 340.19" class="graph-edge"/>
          <path d="M927.52 250.16Q627 627 1075.47 524.64" class="graph-edge"/>
          <path d="M1041.45 427.41Q627 627 1075.47 729.36" class="graph-edge"/>
        </g>
        <g>
          <circle cx="1109" cy="627" r="14" class="graph-node graph-node-cyan"/>
          <circle cx="1075.47" cy="729.36" r="16" class="graph-node graph-node-blue"/>
          <circle cx="1041.45" cy="826.59" r="18" class="graph-node graph-node-violet"/>
          <circle cx="986.64" cy="913.81" r="14" class="graph-node graph-node-magenta"/>
          <circle cx="927.52" cy="1003.84" r="16" class="graph-node graph-node-amber"/>
          <circle cx="826.59" cy="1041.45" r="18" class="graph-node graph-node-emerald"/>
          <circle cx="729.36" cy="1075.47" r="14" class="graph-node graph-node-teal"/>
          <circle cx="627" cy="1087" r="16" class="graph-node graph-node-cyan"/>
          <circle cx="519.74" cy="1096.92" r="18" class="graph-node graph-node-blue"/>
          <circle cx="427.41" cy="1041.45" r="14" class="graph-node graph-node-violet"/>
          <circle cx="340.19" cy="986.64" r="16" class="graph-node graph-node-magenta"/>
          <circle cx="267.36" cy="913.81" r="18" class="graph-node graph-node-amber"/>
          <circle cx="192.73" cy="836.13" r="14" class="graph-node graph-node-emerald"/>
          <circle cx="178.53" cy="729.36" r="16" class="graph-node graph-node-teal"/>
          <circle cx="167" cy="627" r="18" class="graph-node graph-node-cyan"/>
          <circle cx="178.53" cy="524.64" r="14" class="graph-node graph-node-blue"/>
          <circle cx="192.73" cy="417.87" r="16" class="graph-node graph-node-violet"/>
          <circle cx="267.36" cy="340.19" r="18" class="graph-node graph-node-magenta"/>
          <circle cx="340.19" cy="267.36" r="14" class="graph-node graph-node-amber"/>
          <circle cx="427.41" cy="212.55" r="16" class="graph-node graph-node-emerald"/>
          <circle cx="519.74" cy="157.08" r="18" class="graph-node graph-node-teal"/>
          <circle cx="627" cy="167" r="14" class="graph-node graph-node-cyan"/>
          <circle cx="729.36" cy="178.53" r="16" class="graph-node graph-node-blue"/>
          <circle cx="826.59" cy="212.55" r="18" class="graph-node graph-node-violet"/>
          <circle cx="927.52" cy="250.16" r="14" class="graph-node graph-node-magenta"/>
          <circle cx="986.64" cy="340.19" r="16" class="graph-node graph-node-amber"/>
          <circle cx="1041.45" cy="427.41" r="18" class="graph-node graph-node-emerald"/>
          <circle cx="1075.47" cy="524.64" r="14" class="graph-node graph-node-teal"/>
        </g>
      </g>
      <g style="opacity:0.6;mix-blend-mode:screen">
        <path d="M150 512c140-146 588-146 734 0" class="iris-curve" style="stroke:#00e5ff;stroke-width:6"/>
        <path d="M150 512c144 146 588 146 734 0" class="iris-curve" style="stroke:#ff35d3;stroke-width:5.5"/>
        <ellipse cx="627" cy="627" rx="205" ry="100" style="fill:url(#coreGlow);opacity:.55"/>
      </g>
    </g>

    <text class="wordmark" x="200" y="330" text-anchor="middle" font-size="56">iridis</text>
  </g>
  <rect x="142" y="402" width="116" height="40" rx="20" fill="#7c3aed" stroke="#c4b5fd" stroke-width="1.5"/>
  <text class="version" x="200" y="428" text-anchor="middle" font-size="20">v0.4.2</text>
</svg>
