<svg xmlns="http://www.w3.org/2000/svg" viewBox="0 0 1024 1024" role="img" aria-labelledby="title desc">
<title id="title">Iridis layered chromatic engine icon</title>
<desc id="desc">An iridescent scale lattice forming a subtle eye-like chromatic graph engine with animatable CSS layers.</desc>
<defs>
<radialGradient id="core-glow" cx="50%" cy="50%" r="58%">
<stop offset="0%" stop-color="#ffffff" stop-opacity="0.65"/>
<stop offset="18%" stop-color="#00e7ff" stop-opacity="0.45"/>
<stop offset="48%" stop-color="#8e3cff" stop-opacity="0.22"/>
<stop offset="100%" stop-color="#000000" stop-opacity="0"/>
</radialGradient>
<linearGradient id="scale-teal-gradient"><stop offset="0%" stop-color="#00ffe0"/><stop offset="100%" stop-color="#004e62"/></linearGradient>
<linearGradient id="scale-cyan-gradient"><stop offset="0%" stop-color="#00b7ff"/><stop offset="100%" stop-color="#003060"/></linearGradient>
<linearGradient id="scale-emerald-gradient"><stop offset="0%" stop-color="#20ff82"/><stop offset="100%" stop-color="#103f2a"/></linearGradient>
<linearGradient id="scale-violet-gradient"><stop offset="0%" stop-color="#9a4dff"/><stop offset="100%" stop-color="#2a0f55"/></linearGradient>
<linearGradient id="scale-magenta-gradient"><stop offset="0%" stop-color="#ff32d2"/><stop offset="100%" stop-color="#4f0b43"/></linearGradient>
<linearGradient id="scale-indigo-gradient"><stop offset="0%" stop-color="#315bff"/><stop offset="100%" stop-color="#07183d"/></linearGradient>
<linearGradient id="scale-amber-gradient"><stop offset="0%" stop-color="#ffb72b"/><stop offset="100%" stop-color="#583600"/></linearGradient>
<filter id="soft-glow" x="-35%" y="-35%" width="170%" height="170%"><feGaussianBlur stdDeviation="5" result="blur"/><feMerge><feMergeNode in="blur"/><feMergeNode in="SourceGraphic"/></feMerge></filter>
<filter id="node-glow" x="-80%" y="-80%" width="260%" height="260%"><feGaussianBlur stdDeviation="7" result="blur"/><feMerge><feMergeNode in="blur"/><feMergeNode in="SourceGraphic"/></feMerge></filter>
<clipPath id="iris-clip"><path d="M 147 512 C 147 324 877 324 877 512 C 877 700 147 700 147 512 Z"/></clipPath>
<style><![CDATA[
:root { --iridis-bg: transparent; --iridis-line: #04d9ff; --iridis-speed: 12s; }
#background { fill: var(--iridis-bg); }
.scale { stroke: #02030a; stroke-width: 8; stroke-linejoin: round; filter: url(#soft-glow); transform-box: fill-box; transform-origin: center; }
.scale-teal { fill: url(#scale-teal-gradient); }
.scale-cyan { fill: url(#scale-cyan-gradient); }
.scale-emerald { fill: url(#scale-emerald-gradient); }
.scale-violet { fill: url(#scale-violet-gradient); }
.scale-magenta { fill: url(#scale-magenta-gradient); }
.scale-indigo { fill: url(#scale-indigo-gradient); }
.scale-amber { fill: url(#scale-amber-gradient); }
#scale-lattice { clip-path: url(#iris-clip); }
.eyelid-curve { fill: none; stroke: #05050a; stroke-width: 22; stroke-linecap: round; opacity: 0.92; }
.eyelid-highlight { fill: none; stroke: #00e7ff; stroke-width: 3; stroke-linecap: round; opacity: 0.58; }
.graph-edge { fill: none; stroke: var(--iridis-line); stroke-width: 2.4; stroke-linecap: round; opacity: 0.72; filter: url(#node-glow); stroke-dasharray: 9 12; animation: dash var(--iridis-speed) linear infinite; }
.graph-node { stroke: #e7fbff; stroke-width: 2; filter: url(#node-glow); }
.trajectory-arc { fill: none; stroke-width: 2.2; opacity: 0.7; stroke-dasharray: 16 12; animation: dash calc(var(--iridis-speed) * 1.6) linear infinite; }
.arc-0 { stroke: #00d7ff; } .arc-1 { stroke: #9c47ff; } .arc-2 { stroke: #ffbe33; }
.ray { stroke-linecap: round; opacity: 0.42; filter: url(#soft-glow); }
#central-glow { fill: url(#core-glow); opacity: 0.74; }
@keyframes dash { to { stroke-dashoffset: -120; } }
]]></style>
</defs>
<g id="iridis-icon">
<rect id="background" width="1024" height="1024"/>
<g id="refracted-rays">
<path id="ray-cyan-left" class="ray" d="M 16 512 C 190 474 330 488 456 510" stroke="#00d7ff" stroke-width="5"/>
<path id="ray-magenta-right" class="ray" d="M 1008 512 C 840 548 690 534 568 512" stroke="#ff3ed9" stroke-width="5"/>
<path id="ray-emerald-up" class="ray" d="M 512 22 C 540 202 536 346 520 452" stroke="#44ff9c" stroke-width="4"/>
<path id="ray-amber-down" class="ray" d="M 512 1002 C 480 808 488 676 506 570" stroke="#ffc24d" stroke-width="4"/>
</g>
<g id="trajectory-rings"><circle id="trajectory-arc-0" class="trajectory-arc arc-0" cx="512" cy="512" r="455" pathLength="100"/>
<circle id="trajectory-arc-1" class="trajectory-arc arc-1" cx="512" cy="512" r="482" pathLength="100"/>
<circle id="trajectory-arc-2" class="trajectory-arc arc-2" cx="512" cy="512" r="507" pathLength="100"/></g>
<g id="graph-overlay"><path id="edge-00" class="graph-edge" d="M 942.0 512.0 Q 512 512 816.1 816.1"/><path id="edge-02" class="graph-edge" d="M 867.1 717.0 Q 512 512 618.1 908.0"/><path id="edge-04" class="graph-edge" d="M 717.0 867.1 Q 512 512 405.9 908.0"/><path id="edge-06" class="graph-edge" d="M 512.0 942.0 Q 512 512 207.9 816.1"/><path id="edge-08" class="graph-edge" d="M 307.0 867.1 Q 512 512 116.0 618.1"/><path id="edge-10" class="graph-edge" d="M 156.9 717.0 Q 512 512 116.0 405.9"/><path id="edge-12" class="graph-edge" d="M 82.0 512.0 Q 512 512 207.9 207.9"/><path id="edge-14" class="graph-edge" d="M 156.9 307.0 Q 512 512 405.9 116.0"/><path id="edge-16" class="graph-edge" d="M 307.0 156.9 Q 512 512 618.1 116.0"/><path id="edge-18" class="graph-edge" d="M 512.0 82.0 Q 512 512 816.1 207.9"/><path id="edge-20" class="graph-edge" d="M 717.0 156.9 Q 512 512 908.0 405.9"/><path id="edge-22" class="graph-edge" d="M 867.1 307.0 Q 512 512 908.0 618.1"/><circle id="node-00" class="graph-node" cx="942.0" cy="512.0" r="9" fill="#00d7ff"/><circle id="node-01" class="graph-node" cx="908.0" cy="618.1" r="11" fill="#8d6cff"/><circle id="node-02" class="graph-node" cx="867.1" cy="717.0" r="13" fill="#ff3ed9"/><circle id="node-03" class="graph-node" cx="816.1" cy="816.1" r="9" fill="#ffc24d"/><circle id="node-04" class="graph-node" cx="717.0" cy="867.1" r="11" fill="#38ff9b"/><circle id="node-05" class="graph-node" cx="618.1" cy="908.0" r="13" fill="#00d7ff"/><circle id="node-06" class="graph-node" cx="512.0" cy="942.0" r="9" fill="#8d6cff"/><circle id="node-07" class="graph-node" cx="405.9" cy="908.0" r="11" fill="#ff3ed9"/><circle id="node-08" class="graph-node" cx="307.0" cy="867.1" r="13" fill="#ffc24d"/><circle id="node-09" class="graph-node" cx="207.9" cy="816.1" r="9" fill="#38ff9b"/><circle id="node-10" class="graph-node" cx="156.9" cy="717.0" r="11" fill="#00d7ff"/><circle id="node-11" class="graph-node" cx="116.0" cy="618.1" r="13" fill="#8d6cff"/><circle id="node-12" class="graph-node" cx="82.0" cy="512.0" r="9" fill="#ff3ed9"/><circle id="node-13" class="graph-node" cx="116.0" cy="405.9" r="11" fill="#ffc24d"/><circle id="node-14" class="graph-node" cx="156.9" cy="307.0" r="13" fill="#38ff9b"/><circle id="node-15" class="graph-node" cx="207.9" cy="207.9" r="9" fill="#00d7ff"/><circle id="node-16" class="graph-node" cx="307.0" cy="156.9" r="11" fill="#8d6cff"/><circle id="node-17" class="graph-node" cx="405.9" cy="116.0" r="13" fill="#ff3ed9"/><circle id="node-18" class="graph-node" cx="512.0" cy="82.0" r="9" fill="#ffc24d"/><circle id="node-19" class="graph-node" cx="618.1" cy="116.0" r="11" fill="#38ff9b"/><circle id="node-20" class="graph-node" cx="717.0" cy="156.9" r="13" fill="#00d7ff"/><circle id="node-21" class="graph-node" cx="816.1" cy="207.9" r="9" fill="#8d6cff"/><circle id="node-22" class="graph-node" cx="867.1" cy="307.0" r="11" fill="#ff3ed9"/><circle id="node-23" class="graph-node" cx="908.0" cy="405.9" r="13" fill="#ffc24d"/></g>
<g id="scale-lattice"><polygon id="scale-000" class="scale scale-teal ring-0" points="656.3,526.3 617.0,540.6 577.7,526.3 577.7,497.7 617.0,483.4 656.3,497.7" opacity="0.92"/><polygon id="scale-001" class="scale scale-cyan ring-0" points="636.2,573.2 596.9,587.5 557.7,573.2 557.7,544.6 596.9,530.3 636.2,544.6" opacity="0.92"/><polygon id="scale-002" class="scale scale-emerald ring-0" points="583.7,602.2 544.4,616.5 505.2,602.2 505.2,573.6 544.4,559.3 583.7,573.6" opacity="0.92"/><polygon id="scale-003" class="scale scale-violet ring-0" points="518.8,602.2 479.6,616.5 440.3,602.2 440.3,573.6 479.6,559.3 518.8,573.6" opacity="0.92"/><polygon id="scale-004" class="scale scale-magenta ring-0" points="466.3,573.2 427.1,587.5 387.8,573.2 387.8,544.6 427.1,530.3 466.3,544.6" opacity="0.92"/><polygon id="scale-005" class="scale scale-indigo ring-0" points="446.3,526.3 407.0,540.6 367.7,526.3 367.7,497.7 407.0,483.4 446.3,497.7" opacity="0.92"/><polygon id="scale-006" class="scale scale-amber ring-0" points="466.3,479.4 427.1,493.7 387.8,479.4 387.8,450.8 427.1,436.5 466.3,450.8" opacity="0.92"/><polygon id="scale-007" class="scale scale-teal ring-0" points="518.8,450.4 479.6,464.7 440.3,450.4 440.3,421.8 479.6,407.5 518.8,421.8" opacity="0.92"/><polygon id="scale-008" class="scale scale-cyan ring-0" points="583.7,450.4 544.4,464.7 505.2,450.4 505.2,421.8 544.4,407.5 583.7,421.8" opacity="0.92"/><polygon id="scale-009" class="scale scale-emerald ring-0" points="636.2,479.4 596.9,493.7 557.7,479.4 557.7,450.8 596.9,436.5 636.2,450.8" opacity="0.92"/><polygon id="scale-010" class="scale scale-emerald ring-1" points="737.2,550.1 699.1,559.7 666.8,543.8 672.5,518.2 710.5,508.6 742.9,524.5" opacity="0.92"/><polygon id="scale-011" class="scale scale-violet ring-1" points="715.6,598.8 677.5,608.5 645.2,592.6 650.9,567.0 688.9,557.3 721.3,573.2" opacity="0.92"/><polygon id="scale-012" class="scale scale-magenta ring-1" points="673.3,639.1 635.3,648.7 602.9,632.8 608.6,607.2 646.7,597.6 679.0,613.5" opacity="0.92"/><polygon id="scale-013" class="scale scale-indigo ring-1" points="615.5,665.9 577.5,675.6 545.1,659.7 550.8,634.1 588.9,624.4 621.2,640.3" opacity="0.92"/><polygon id="scale-014" class="scale scale-amber ring-1" points="549.1,676.1 511.1,685.7 478.7,669.8 484.4,644.2 522.5,634.6 554.8,650.5" opacity="0.76"/><polygon id="scale-015" class="scale scale-teal ring-1" points="482.2,668.4 444.1,678.1 411.8,662.1 417.5,636.6 455.5,626.9 487.9,642.8" opacity="0.92"/><polygon id="scale-016" class="scale scale-cyan ring-1" points="422.7,643.7 384.6,653.4 352.3,637.5 358.0,611.9 396.1,602.2 428.4,618.2" opacity="0.92"/><polygon id="scale-017" class="scale scale-emerald ring-1" points="377.9,605.1 339.9,614.8 307.5,598.9 313.2,573.3 351.3,563.6 383.6,579.5" opacity="0.92"/><polygon id="scale-018" class="scale scale-violet ring-1" points="353.2,557.2 315.1,566.9 282.8,551.0 288.5,525.4 326.6,515.7 358.9,531.6" opacity="0.92"/><polygon id="scale-019" class="scale scale-magenta ring-1" points="351.5,505.8 313.5,515.4 281.1,499.5 286.8,473.9 324.9,464.3 357.2,480.2" opacity="0.92"/><polygon id="scale-020" class="scale scale-indigo ring-1" points="373.1,457.0 335.1,466.7 302.7,450.8 308.4,425.2 346.5,415.5 378.8,431.4" opacity="0.92"/><polygon id="scale-021" class="scale scale-amber ring-1" points="415.4,416.8 377.3,426.4 345.0,410.5 350.7,384.9 388.7,375.3 421.1,391.2" opacity="0.92"/><polygon id="scale-022" class="scale scale-teal ring-1" points="473.2,389.9 435.1,399.6 402.8,383.7 408.5,358.1 446.5,348.4 478.9,364.3" opacity="0.92"/><polygon id="scale-023" class="scale scale-cyan ring-1" points="539.6,379.8 501.5,389.4 469.2,373.5 474.9,347.9 512.9,338.3 545.3,354.2" opacity="0.76"/><polygon id="scale-024" class="scale scale-emerald ring-1" points="606.5,387.4 568.5,397.1 536.1,381.2 541.8,355.6 579.9,345.9 612.2,361.9" opacity="0.92"/><polygon id="scale-025" class="scale scale-violet ring-1" points="666.0,412.1 627.9,421.8 595.6,405.8 601.3,380.3 639.4,370.6 671.7,386.5" opacity="0.92"/><polygon id="scale-026" class="scale scale-magenta ring-1" points="710.8,450.7 672.7,460.4 640.4,444.5 646.1,418.9 684.1,409.2 716.5,425.1" opacity="0.92"/><polygon id="scale-027" class="scale scale-indigo ring-1" points="735.5,498.6 697.4,508.3 665.1,492.4 670.8,466.8 708.9,457.1 741.2,473.0" opacity="0.92"/><polygon id="scale-028" class="scale scale-magenta ring-2" points="809.8,592.6 774.1,598.2 748.6,581.6 758.8,559.4 794.4,553.8 819.9,570.4" opacity="0.92"/><polygon id="scale-029" class="scale scale-indigo ring-2" points="784.2,637.1 748.6,642.7 723.1,626.0 733.2,603.8 768.8,598.2 794.3,614.9" opacity="0.92"/><polygon id="scale-030" class="scale scale-amber ring-2" points="746.3,676.1 710.6,681.7 685.1,665.0 695.3,642.8 730.9,637.2 756.4,653.9" opacity="0.92"/><polygon id="scale-031" class="scale scale-teal ring-2" points="697.9,707.7 662.2,713.3 636.7,696.7 646.8,674.4 682.5,668.8 708.0,685.5" opacity="0.76"/><polygon id="scale-032" class="scale scale-emerald ring-2" points="579.8,742.8 544.1,748.4 518.6,731.8 528.7,709.6 564.4,704.0 589.9,720.6" opacity="0.76"/><polygon id="scale-033" class="scale scale-magenta ring-2" points="453.3,735.6 417.7,741.2 392.1,724.5 402.3,702.3 437.9,696.7 463.4,713.3" opacity="0.76"/><polygon id="scale-034" class="scale scale-indigo ring-2" points="394.8,716.1 359.2,721.7 333.7,705.1 343.8,682.9 379.4,677.3 404.9,693.9" opacity="0.76"/><polygon id="scale-035" class="scale scale-amber ring-2" points="343.5,687.3 307.9,692.9 282.4,676.3 292.5,654.0 328.1,648.4 353.6,665.1" opacity="0.92"/><polygon id="scale-036" class="scale scale-teal ring-2" points="301.9,650.5 266.3,656.1 240.8,639.5 250.9,617.2 286.5,611.6 312.0,628.3" opacity="0.92"/><polygon id="scale-037" class="scale scale-cyan ring-2" points="272.1,607.6 236.5,613.2 211.0,596.6 221.1,574.3 256.7,568.7 282.2,585.4" opacity="0.92"/><polygon id="scale-038" class="scale scale-emerald ring-2" points="255.7,560.7 220.0,566.3 194.5,549.7 204.6,527.5 240.3,521.9 265.8,538.5" opacity="0.92"/><polygon id="scale-039" class="scale scale-violet ring-2" points="253.3,512.3 217.7,517.9 192.2,501.2 202.3,479.0 237.9,473.4 263.4,490.0" opacity="0.92"/><polygon id="scale-040" class="scale scale-magenta ring-2" points="265.2,464.6 229.6,470.2 204.1,453.6 214.2,431.4 249.9,425.8 275.4,442.4" opacity="0.92"/><polygon id="scale-041" class="scale scale-indigo ring-2" points="290.8,420.2 255.2,425.8 229.7,409.1 239.8,386.9 275.4,381.3 300.9,398.0" opacity="0.92"/><polygon id="scale-042" class="scale scale-amber ring-2" points="328.7,381.2 293.1,386.8 267.6,370.1 277.7,347.9 313.4,342.3 338.9,359.0" opacity="0.92"/><polygon id="scale-043" class="scale scale-cyan ring-2" points="433.6,326.9 398.0,332.5 372.5,315.9 382.6,293.7 418.2,288.1 443.7,304.7" opacity="0.76"/><polygon id="scale-044" class="scale scale-violet ring-2" points="559.0,312.6 523.4,318.2 497.9,301.6 508.0,279.4 543.6,273.8 569.2,290.4" opacity="0.76"/><polygon id="scale-045" class="scale scale-amber ring-2" points="731.5,370.0 695.9,375.6 670.4,358.9 680.5,336.7 716.1,331.1 741.6,347.7" opacity="0.92"/><polygon id="scale-046" class="scale scale-teal ring-2" points="773.1,406.8 737.5,412.4 712.0,395.7 722.1,373.5 757.7,367.9 783.2,384.5" opacity="0.92"/><polygon id="scale-047" class="scale scale-cyan ring-2" points="802.9,449.7 767.3,455.3 741.8,438.6 751.9,416.4 787.5,410.8 813.0,427.4" opacity="0.92"/><polygon id="scale-048" class="scale scale-emerald ring-2" points="819.4,496.5 783.7,502.1 758.2,485.5 768.3,463.3 804.0,457.7 829.5,474.3" opacity="0.92"/><polygon id="scale-049" class="scale scale-violet ring-2" points="821.7,545.0 786.1,550.6 760.6,534.0 770.7,511.7 806.3,506.1 831.8,522.8" opacity="0.92"/><polygon id="scale-050" class="scale scale-amber ring-3" points="859.7,649.2 827.5,651.3 808.4,634.8 821.6,616.2 853.8,614.0 872.9,630.5" opacity="0.92"/><polygon id="scale-051" class="scale scale-teal ring-3" points="827.1,690.7 794.9,692.8 775.9,676.3 789.1,657.7 821.3,655.6 840.3,672.1" opacity="0.92"/><polygon id="scale-052" class="scale scale-cyan ring-3" points="785.6,727.3 753.4,729.5 734.3,712.9 747.5,694.3 779.7,692.2 798.8,708.7" opacity="0.76"/><polygon id="scale-053" class="scale scale-emerald ring-3" points="736.3,757.9 704.1,760.0 685.0,743.5 698.2,724.9 730.4,722.7 749.5,739.3" opacity="0.76"/><polygon id="scale-054" class="scale scale-magenta ring-3" points="620.7,797.4 588.5,799.5 569.4,783.0 582.6,764.4 614.8,762.3 633.9,778.8" opacity="0.76"/><polygon id="scale-055" class="scale scale-indigo ring-3" points="557.9,805.2 525.7,807.3 506.6,790.8 519.8,772.1 552.0,770.0 571.1,786.5" opacity="0.76"/><polygon id="scale-056" class="scale scale-amber ring-3" points="494.3,804.5 462.0,806.6 443.0,790.1 456.2,771.5 488.4,769.4 507.4,785.9" opacity="0.76"/><polygon id="scale-057" class="scale scale-teal ring-3" points="431.8,795.4 399.5,797.6 380.5,781.1 393.7,762.4 425.9,760.3 444.9,776.8" opacity="0.76"/><polygon id="scale-058" class="scale scale-cyan ring-3" points="372.3,778.3 340.1,780.4 321.0,763.9 334.2,745.3 366.4,743.1 385.5,759.7" opacity="0.76"/><polygon id="scale-059" class="scale scale-emerald ring-3" points="317.6,753.5 285.4,755.7 266.4,739.2 279.5,720.5 311.8,718.4 330.8,734.9" opacity="0.76"/><polygon id="scale-060" class="scale scale-magenta ring-3" points="229.2,684.5 197.0,686.6 178.0,670.1 191.1,651.5 223.4,649.4 242.4,665.9" opacity="0.92"/><polygon id="scale-061" class="scale scale-indigo ring-3" points="198.2,642.3 165.9,644.4 146.9,627.9 160.1,609.3 192.3,607.2 211.3,623.7" opacity="0.92"/><polygon id="scale-062" class="scale scale-amber ring-3" points="177.2,596.6 145.0,598.8 126.0,582.3 139.1,563.6 171.4,561.5 190.4,578.0" opacity="0.92"/><polygon id="scale-063" class="scale scale-teal ring-3" points="167.0,548.9 134.8,551.0 115.8,534.5 128.9,515.9 161.2,513.8 180.2,530.3" opacity="0.92"/><polygon id="scale-064" class="scale scale-cyan ring-3" points="167.9,500.6 135.7,502.7 116.6,486.2 129.8,467.5 162.0,465.4 181.1,481.9" opacity="0.92"/><polygon id="scale-065" class="scale scale-emerald ring-3" points="179.8,453.1 147.6,455.2 128.5,438.7 141.7,420.0 173.9,417.9 193.0,434.4" opacity="0.92"/><polygon id="scale-066" class="scale scale-violet ring-3" points="202.4,407.8 170.2,410.0 151.1,393.5 164.3,374.8 196.5,372.7 215.6,389.2" opacity="0.92"/><polygon id="scale-067" class="scale scale-magenta ring-3" points="234.9,366.3 202.7,368.4 183.7,351.9 196.9,333.3 229.1,331.2 248.1,347.7" opacity="0.92"/><polygon id="scale-068" class="scale scale-indigo ring-3" points="276.5,329.7 244.3,331.8 225.2,315.3 238.4,296.7 270.6,294.5 289.7,311.1" opacity="0.76"/><polygon id="scale-069" class="scale scale-amber ring-3" points="325.8,299.1 293.6,301.3 274.5,284.7 287.7,266.1 319.9,264.0 339.0,280.5" opacity="0.76"/><polygon id="scale-070" class="scale scale-emerald ring-3" points="504.2,251.9 472.0,254.0 452.9,237.5 466.1,218.8 498.3,216.7 517.4,233.2" opacity="0.76"/><polygon id="scale-071" class="scale scale-violet ring-3" points="567.8,252.5 535.6,254.6 516.6,238.1 529.7,219.5 562.0,217.4 581.0,233.9" opacity="0.76"/><polygon id="scale-072" class="scale scale-magenta ring-3" points="630.3,261.6 598.1,263.7 579.1,247.2 592.2,228.6 624.5,226.4 643.5,242.9" opacity="0.76"/><polygon id="scale-073" class="scale scale-indigo ring-3" points="689.8,278.7 657.6,280.9 638.5,264.3 651.7,245.7 683.9,243.6 703.0,260.1" opacity="0.76"/><polygon id="scale-074" class="scale scale-amber ring-3" points="744.5,303.5 712.2,305.6 693.2,289.1 706.4,270.5 738.6,268.3 757.6,284.8" opacity="0.76"/><polygon id="scale-075" class="scale scale-teal ring-3" points="792.6,335.1 760.4,337.2 741.4,320.7 754.6,302.0 786.8,299.9 805.8,316.4" opacity="0.76"/><polygon id="scale-076" class="scale scale-cyan ring-3" points="832.9,372.5 800.6,374.6 781.6,358.1 794.8,339.5 827.0,337.4 846.0,353.9" opacity="0.92"/><polygon id="scale-077" class="scale scale-emerald ring-3" points="863.9,414.7 831.7,416.8 812.7,400.3 825.8,381.7 858.1,379.6 877.1,396.1" opacity="0.92"/><polygon id="scale-078" class="scale scale-violet ring-3" points="884.9,460.4 852.6,462.5 833.6,446.0 846.8,427.4 879.0,425.2 898.0,441.7" opacity="0.92"/><polygon id="scale-079" class="scale scale-magenta ring-3" points="895.1,508.1 862.8,510.2 843.8,493.7 857.0,475.1 889.2,473.0 908.2,489.5" opacity="0.92"/><polygon id="scale-080" class="scale scale-indigo ring-3" points="894.2,556.5 862.0,558.6 842.9,542.1 856.1,523.4 888.3,521.3 907.4,537.8" opacity="0.92"/><polygon id="scale-081" class="scale scale-amber ring-3" points="882.3,604.0 850.1,606.1 831.0,589.6 844.2,570.9 876.4,568.8 895.5,585.3" opacity="0.92"/></g>
<g id="iris-curvature">
<path id="upper-curvature-shadow" class="eyelid-curve" d="M 118 516 C 276 338 744 338 906 516"/>
<path id="lower-curvature-shadow" class="eyelid-curve" d="M 118 516 C 282 686 744 686 906 516"/>
<path id="upper-curvature-light" class="eyelid-highlight" d="M 134 512 C 300 378 724 378 890 512"/>
<path id="lower-curvature-light" class="eyelid-highlight" d="M 134 514 C 300 650 724 650 890 514"/>
</g>
<ellipse id="central-glow" cx="512" cy="512" rx="210" ry="118"/>
</g>
</svg>
